<svg width="22" height="13" viewBox="0 0 22 13" fill="none" xmlns="http://www.w3.org/2000/svg">
<path d="M7.33333 5.16665H4.58333V2.41665H2.75V5.16665H0V6.99998H2.75V9.74998H4.58333V6.99998H7.33333V5.16665ZM16.5 6.08331C18.0217 6.08331 19.2408 4.85498 19.2408 3.33331C19.2408 1.81165 18.0217 0.583313 16.5 0.583313C16.2067 0.583313 15.9225 0.629146 15.6658 0.711646C16.1883 1.45415 16.4908 2.35248 16.4908 3.33331C16.4908 4.31415 16.1792 5.20331 15.6658 5.95498C15.9225 6.03748 16.2067 6.08331 16.5 6.08331ZM11.9167 6.08331C13.4383 6.08331 14.6575 4.85498 14.6575 3.33331C14.6575 1.81165 13.4383 0.583313 11.9167 0.583313C10.395 0.583313 9.16667 1.81165 9.16667 3.33331C9.16667 4.85498 10.395 6.08331 11.9167 6.08331ZM17.985 8.06331C18.7458 8.73248 19.25 9.58498 19.25 10.6666V12.5H22V10.6666C22 9.25498 19.8275 8.38415 17.985 8.06331ZM11.9167 7.91665C10.0833 7.91665 6.41667 8.83331 6.41667 10.6666V12.5H17.4167V10.6666C17.4167 8.83331 13.75 7.91665 11.9167 7.91665Z" fill="white"/>
</svg>
