<svg viewBox="0 0 163 24" fill="none" xmlns="http://www.w3.org/2000/svg">
<path d="M96.7952 15.498C98.7164 15.498 100.274 13.9393 100.274 12.0165C100.274 10.0938 98.7164 8.53503 96.7952 8.53503C94.8739 8.53503 93.3164 10.0938 93.3164 12.0165C93.3164 13.9393 94.8739 15.498 96.7952 15.498Z" fill="#CDDC36"/>
<path d="M84.7881 11.1465L90.2737 5.65649H86.5612C85.5411 7.31878 84.9331 9.20114 84.7881 11.1465Z" fill="#DAE233"/>
<path d="M95.9588 0C93.9449 0.127315 91.9979 0.773184 90.3068 1.875V5.658L95.9588 0Z" fill="#DAE233"/>
<path d="M108.769 11.1465L103.283 5.65649H106.996C108.031 7.31208 108.64 9.19811 108.769 11.1465Z" fill="#DAE233"/>
<path d="M97.6315 0C99.6454 0.127382 101.592 0.773246 103.284 1.875V5.658L97.6315 0Z" fill="#DAE233"/>
<path d="M90.3067 12.786H84.821C84.9503 14.7344 85.5594 16.6205 86.5941 18.276H90.3067V12.786Z" fill="#DAE233"/>
<path d="M103.318 12.786H108.804C108.674 14.7344 108.065 16.6204 107.031 18.276H103.318V12.786Z" fill="#DAE233"/>
<path d="M95.9589 5.59052L90.4132 11.1405H84.7882L95.9589 -0.00598145V5.59052Z" fill="#46B746"/>
<path d="M97.6315 23.9655C99.6562 23.8934 101.623 23.2683 103.318 22.158V12.786L97.6315 18.477V23.9655Z" fill="#46B746"/>
<path d="M95.9258 18.444L90.3068 12.8206V22.1925C92.0032 23.2734 93.9504 23.8961 95.9588 24.0001V18.45L95.9258 18.444Z" fill="#46B746"/>
<path d="M97.6315 5.59051L103.177 11.1405H108.796L97.6315 0V5.59051Z" fill="#46B746"/>
<path d="M17.6891 22.6215C17.5055 22.6381 17.3218 22.5905 17.1694 22.4869C17.0169 22.3833 16.905 22.2299 16.8527 22.053L14.3047 15.1245H4.18174L1.70719 22.053C1.6472 22.2251 1.5335 22.3732 1.38289 22.4756C1.23228 22.578 1.05276 22.6291 0.870856 22.6215C0.724626 22.6204 0.58097 22.5829 0.45275 22.5125C0.32453 22.4422 0.21575 22.3411 0.136148 22.2183C0.0565459 22.0955 0.00860785 21.9549 -0.00337406 21.8091C-0.015356 21.6632 0.00899272 21.5167 0.0674911 21.3825L6.62331 3.27303C6.75931 2.67424 7.09522 2.13972 7.5756 1.75768C8.05598 1.37563 8.65214 1.16888 9.26572 1.17153C9.87827 1.1728 10.4731 1.37724 10.9572 1.75287C11.4413 2.1285 11.7873 2.65414 11.9411 3.24754L18.5359 21.39C18.5707 21.4868 18.5934 21.5876 18.6033 21.69C18.5982 21.9326 18.5007 22.1641 18.3308 22.3372C18.1609 22.5103 17.9313 22.612 17.6891 22.6215V22.6215ZM4.84571 13.35H13.6423L10.1635 3.60903C10.1236 3.39742 10.0128 3.20579 9.84923 3.06585C9.68568 2.92591 9.47929 2.84606 9.26422 2.83953C8.86454 2.83953 8.56477 3.10755 8.36493 3.64355L4.84571 13.35Z" fill="#27A365"/>
<path d="M24.5162 3.21304H17.9574C17.8389 3.22001 17.7203 3.20269 17.6088 3.16212C17.4973 3.12154 17.3952 3.05858 17.3089 2.97711C17.2226 2.89564 17.1538 2.79736 17.1068 2.68833C17.0598 2.5793 17.0355 2.46179 17.0355 2.34304C17.0355 2.22429 17.0598 2.1068 17.1068 1.99777C17.1538 1.88874 17.2226 1.79046 17.3089 1.70899C17.3952 1.62752 17.4973 1.56456 17.6088 1.52398C17.7203 1.48341 17.8389 1.46609 17.9574 1.47306H32.7073C32.9378 1.47306 33.1589 1.56472 33.3219 1.72787C33.485 1.89103 33.5766 2.1123 33.5766 2.34304C33.5766 2.57378 33.485 2.79507 33.3219 2.95823C33.1589 3.12138 32.9378 3.21304 32.7073 3.21304H26.2563V21.8236C26.2563 21.9378 26.2339 22.0509 26.1902 22.1565C26.1465 22.2621 26.0825 22.3579 26.0017 22.4387C25.921 22.5195 25.8252 22.5836 25.7197 22.6273C25.6142 22.6711 25.5012 22.6935 25.387 22.6935C25.2729 22.6935 25.1598 22.6711 25.0544 22.6273C24.9489 22.5836 24.8531 22.5195 24.7723 22.4387C24.6916 22.3579 24.6276 22.2621 24.5839 22.1565C24.5402 22.0509 24.5177 21.9378 24.5177 21.8236L24.5162 3.21304Z" fill="#27A365"/>
<path d="M51.6057 15.4981C51.61 16.4727 51.4165 17.4379 51.037 18.3355C50.6575 19.233 50.0999 20.0441 49.398 20.7196C48.6442 21.4663 47.7437 22.0483 46.7535 22.4287C45.7633 22.809 44.7049 22.9794 43.6455 22.9291C42.5347 22.9521 41.4304 22.7539 40.3968 22.346C39.3632 21.9381 38.4209 21.3287 37.6248 20.5531C35.9975 18.9564 35.0301 16.8054 34.9149 14.5276C34.7811 12.8903 34.7811 11.2449 34.9149 9.60759C35.0308 7.3496 35.9994 5.21997 37.6248 3.64959C38.4163 2.86538 39.357 2.24799 40.3912 1.83396C41.4253 1.41992 42.5319 1.21764 43.6455 1.23907C45.251 1.19506 46.8323 1.63833 48.1813 2.51058C49.5304 3.38283 50.5842 4.64324 51.204 6.12609C51.2556 6.26313 51.2735 6.41052 51.2564 6.55593C51.2393 6.70134 51.1877 6.84053 51.1058 6.96185C51.0239 7.08318 50.9141 7.18311 50.7857 7.25327C50.6573 7.32342 50.514 7.36175 50.3677 7.36507C50.1849 7.37723 50.0033 7.32789 49.8518 7.22488C49.7002 7.12187 49.5875 6.97111 49.5314 6.79658C49.0303 5.65665 48.2045 4.68985 47.1574 4.01701C46.1103 3.34417 44.8882 2.99513 43.644 3.01357C42.7784 3.00053 41.9188 3.15955 41.1151 3.4814C40.3113 3.80326 39.5794 4.28155 38.9617 4.88857C37.6582 6.11354 36.8689 7.78877 36.7539 9.57459C36.5867 11.2439 36.5867 12.9258 36.7539 14.5951C36.8711 16.3827 37.6453 18.0637 38.9272 19.3141C39.5514 19.9215 40.2892 20.3998 41.0983 20.7215C41.9074 21.0432 42.772 21.2021 43.6425 21.1891C45.2601 21.2598 46.846 20.725 48.091 19.6891C48.6589 19.204 49.1102 18.597 49.4112 17.9131C49.7122 17.2293 49.8553 16.4864 49.8296 15.7396V13.3891H44.8131C44.5825 13.3891 44.3614 13.2974 44.1984 13.1343C44.0354 12.9711 43.9438 12.7498 43.9438 12.5191C43.9438 12.2883 44.0354 12.0671 44.1984 11.9039C44.3614 11.7407 44.5825 11.6491 44.8131 11.6491H49.93C50.1492 11.628 50.3702 11.6546 50.5782 11.7269C50.7861 11.7992 50.9759 11.9157 51.1348 12.0682C51.2936 12.2207 51.4176 12.4058 51.4984 12.6107C51.5791 12.8156 51.6147 13.0356 51.6027 13.2556L51.6057 15.4981Z" fill="#27A365"/>
<path d="M57.1604 21.8911C57.1692 22.0268 57.1496 22.1628 57.1028 22.2904C57.056 22.418 56.9831 22.5345 56.8887 22.6322C56.7942 22.73 56.6804 22.8069 56.5545 22.858C56.4287 22.9091 56.2935 22.9333 56.1577 22.9291C56.0235 22.9277 55.8909 22.8997 55.7676 22.8466C55.6443 22.7936 55.5327 22.7165 55.4394 22.6199C55.3462 22.5233 55.273 22.4092 55.2241 22.2841C55.1753 22.159 55.1518 22.0254 55.155 21.8911V20.2516C55.0546 18.9121 57.2293 18.9121 57.1619 20.2516L57.1604 21.8911Z" fill="#27A365"/>
<path d="M58.0641 2.44359C58.0205 2.30954 58.0101 2.16691 58.0337 2.02794C58.0574 1.88896 58.1144 1.75781 58.2 1.64579C58.2855 1.53378 58.3969 1.44424 58.5247 1.38489C58.6525 1.32554 58.7927 1.29817 58.9334 1.3051C59.0348 1.29459 59.1373 1.3046 59.2348 1.33454C59.3322 1.36448 59.4226 1.41374 59.5007 1.47937C59.5787 1.54501 59.6427 1.62569 59.689 1.71661C59.7352 1.80753 59.7627 1.90683 59.7698 2.0086L64.0174 21.0886C64.0174 21.3226 64.2513 21.2566 64.3172 21.0886L69.1329 2.88009C69.1995 2.44657 69.4244 2.05321 69.7642 1.77612C70.1039 1.49903 70.5342 1.35791 70.9719 1.38009C71.4081 1.3642 71.8353 1.50762 72.1736 1.7836C72.512 2.05959 72.7385 2.4493 72.811 2.88009L77.5263 21.1231C77.5937 21.2911 77.826 21.3571 77.826 21.1231L82.1411 2.07309C82.1595 1.85761 82.26 1.65747 82.4218 1.51419C82.5837 1.37091 82.7945 1.29549 83.0104 1.30359C83.1524 1.28881 83.2957 1.31144 83.4263 1.36924C83.5568 1.42703 83.6699 1.51798 83.7545 1.63307C83.839 1.74815 83.892 1.88339 83.9082 2.0253C83.9244 2.16722 83.9032 2.3109 83.8468 2.4421L79.5002 21.4546C79.4068 21.8641 79.1772 22.2297 78.8491 22.4915C78.521 22.7534 78.1138 22.896 77.6941 22.896C77.2745 22.896 76.8672 22.7534 76.5391 22.4915C76.211 22.2297 75.9815 21.8641 75.8881 21.4546L71.0724 3.2116C71.0724 3.17182 71.0566 3.13367 71.0285 3.10553C71.0004 3.0774 70.9622 3.06159 70.9225 3.06159C70.8827 3.06159 70.8446 3.0774 70.8165 3.10553C70.7884 3.13367 70.7726 3.17182 70.7726 3.2116L65.8895 21.4546C65.7961 21.8641 65.5665 22.2297 65.2384 22.4915C64.9103 22.7534 64.503 22.896 64.0834 22.896C63.6637 22.896 63.2565 22.7534 62.9284 22.4915C62.6003 22.2297 62.3707 21.8641 62.2773 21.4546L58.0641 2.44359Z" fill="#5C5D5D"/>
<path d="M125.893 22.761C125.759 22.7552 125.628 22.7226 125.508 22.6652C125.387 22.6077 125.279 22.5265 125.19 22.4265L119.237 14.9625C119.065 14.6633 118.816 14.4155 118.516 14.2449C118.216 14.0742 117.876 13.9869 117.531 13.992H113.316V21.858C113.307 22.0887 113.213 22.3078 113.053 22.4738C112.893 22.6397 112.677 22.7409 112.447 22.758C112.215 22.7462 111.996 22.6468 111.835 22.4797C111.674 22.3126 111.582 22.0904 111.578 21.858V3.21301C111.568 2.98171 111.606 2.75088 111.69 2.53515C111.774 2.31942 111.902 2.12351 112.065 1.95988C112.229 1.79625 112.425 1.66846 112.641 1.58465C112.856 1.50084 113.087 1.46282 113.318 1.47302H119.439C121.19 1.38663 122.906 1.98718 124.222 3.14702C124.846 3.74328 125.333 4.46764 125.65 5.27033C125.968 6.07303 126.108 6.93501 126.061 7.79701C126.061 11.3115 123.987 13.287 120.515 13.755L126.602 21.3195C126.722 21.4837 126.782 21.6848 126.77 21.888C126.774 22.0041 126.754 22.1198 126.711 22.2278C126.669 22.3359 126.604 22.4339 126.522 22.5159C126.439 22.5978 126.341 22.6619 126.233 22.7041C126.125 22.7462 126.009 22.7656 125.893 22.761V22.761ZM113.351 12.2175H118.97C122.549 12.2175 124.321 10.7445 124.321 7.73251C124.321 4.95451 122.615 3.21301 119.405 3.21301H113.351V12.2175Z" fill="#5C5D5D"/>
<path d="M129.673 2.24254C129.673 2.0118 129.765 1.79053 129.928 1.62737C130.091 1.46422 130.312 1.37256 130.542 1.37256C130.773 1.37256 130.994 1.46422 131.157 1.62737C131.32 1.79053 131.412 2.0118 131.412 2.24254V20.8201H141.981C142.216 20.8313 142.438 20.9298 142.605 21.0962C142.771 21.2626 142.869 21.485 142.881 21.72C142.869 21.9521 142.769 22.1711 142.602 22.3326C142.435 22.4942 142.213 22.5862 141.981 22.59H131.446C131.211 22.6 130.976 22.561 130.756 22.4753C130.536 22.3897 130.337 22.2593 130.17 22.0925C130.004 21.9257 129.873 21.726 129.788 21.5062C129.702 21.2864 129.663 21.0512 129.673 20.8155V2.24254Z" fill="#5C5D5D"/>
<path d="M148.035 22.626C147.809 22.6386 147.583 22.6028 147.373 22.521C147.162 22.4392 146.971 22.3133 146.812 22.1517C146.654 21.9902 146.532 21.7966 146.454 21.584C146.377 21.3714 146.345 21.1447 146.362 20.919V3.14551C146.345 2.91983 146.377 2.69311 146.454 2.48052C146.532 2.26793 146.654 2.07437 146.812 1.91278C146.971 1.75119 147.162 1.62529 147.373 1.5435C147.583 1.46171 147.809 1.42592 148.035 1.43851H153.257C154.483 1.35703 155.713 1.53549 156.866 1.96224C158.018 2.38899 159.068 3.05442 159.946 3.91502C161.594 5.67549 162.515 7.99592 162.521 10.4085C162.588 11.512 162.588 12.6185 162.521 13.722C162.484 16.1277 161.553 18.4333 159.909 20.1885C159.027 21.0323 157.981 21.6848 156.835 22.1053C155.69 22.5257 154.47 22.7051 153.252 22.632H148.035V22.626ZM160.775 10.341C160.508 5.85601 158.065 3.21152 153.216 3.21152H148.133V20.8185H153.216C158.067 20.8185 160.541 18.141 160.775 13.689C160.843 12.5746 160.844 11.4571 160.778 10.3425L160.775 10.341Z" fill="#5C5D5D"/>
<path d="M90.3007 22.2V12.8205L95.9123 18.45H95.9452V24C93.9399 23.8981 91.9952 23.278 90.3007 22.2V22.2ZM97.6149 18.4845L103.292 12.7935V22.1655C101.6 23.2755 99.6368 23.9006 97.6149 23.973V18.4845ZM103.292 18.2835V12.786H108.771C108.641 14.734 108.033 16.6199 107.001 18.276L103.292 18.2835ZM86.5926 18.2835C85.5586 16.6252 84.9505 14.7366 84.8225 12.786H90.3007V18.276L86.5926 18.2835ZM93.3073 12.0165C93.3085 11.3294 93.5132 10.658 93.8955 10.0873C94.2778 9.5165 94.8206 9.07197 95.4553 8.80984C96.0899 8.54771 96.788 8.47973 97.4612 8.61451C98.1345 8.74929 98.7527 9.08078 99.2378 9.56707C99.7229 10.0534 100.053 10.6727 100.187 11.3467C100.32 12.0207 100.251 12.7192 99.9879 13.3539C99.7249 13.9886 99.2798 14.5311 98.7088 14.9127C98.1379 15.2943 97.4667 15.498 96.7801 15.498C96.3236 15.4976 95.8717 15.4072 95.4502 15.2321C95.0286 15.0569 94.6457 14.8003 94.3232 14.477C94.0008 14.1538 93.7451 13.7701 93.5708 13.3479C93.3964 12.9257 93.3069 12.4733 93.3073 12.0165V12.0165ZM103.161 11.1465L97.6149 5.5965V0C99.6266 0.127176 101.571 0.773109 103.259 1.875V5.64L103.276 5.6565H106.972C107.998 7.30233 108.605 9.17515 108.739 11.1105L108.771 11.1465H103.161ZM84.7896 11.1465L84.83 11.1C84.9807 9.1712 85.5863 7.30566 86.5971 5.6565H90.2842L90.3007 5.64V1.875C91.9891 0.773109 93.9336 0.127176 95.9452 0V5.5905L90.3996 11.1405L84.7896 11.1465Z" fill="url(#paint0_linear_82_1340)"/>
<defs>
<linearGradient id="paint0_linear_82_1340" x1="84.7896" y1="10.464" x2="96.7907" y2="23.9906" gradientUnits="userSpaceOnUse">
<stop stop-color="#00A854"/>
<stop offset="1" stop-color="#004D25"/>
</linearGradient>
</defs>
</svg>
